HIERARCHY
ROOT root
{
	OFFSET	0	13.1	24.9
	CHANNELS 6  Xposition Yposition Zposition Xrotation Yrotation Zrotation
	JOINT spine_1
	{
		OFFSET	0	9.99999	0
		CHANNELS 3  Xrotation Yrotation Zrotation
		JOINT spine_2
		{
			OFFSET	0	112	-10
			CHANNELS 3  Xrotation Yrotation Zrotation
			JOINT spine_3
			{
				OFFSET	0	206.5	19.3
				CHANNELS 3  Xrotation Yrotation Zrotation
				JOINT spine_4
				{
					OFFSET	0	110.4	14.6
					CHANNELS 3  Xrotation Yrotation Zrotation
					JOINT neck_1
					{
						OFFSET	0	71.8	-50.3
						CHANNELS 3  Xrotation Yrotation Zrotation
						JOINT neck_2
						{
							OFFSET	0	86.2	-25.8
							CHANNELS 3  Xrotation Yrotation Zrotation
							JOINT head_ee
							{
								OFFSET	0	179.8	-8.7
								CHANNELS 3  Xrotation Yrotation Zrotation
								End Site
								{
									OFFSET	1	0	0
								}
							}
						}
					}
					JOINT left_clavicle
					{
						OFFSET	-43.2	22.4	-70.8
						CHANNELS 3  Xrotation Yrotation Zrotation
						JOINT left_shoulder
						{
							OFFSET	-93.9	-5.79999	48.7
							CHANNELS 3  Xrotation Yrotation Zrotation
							JOINT left_elbow
							{
								OFFSET	-291.4	-30.8	15.2
								CHANNELS 3  Xrotation Yrotation Zrotation
								JOINT left_lowarm_twist
								{
									OFFSET	-110.7	-3.89999	13.6
									CHANNELS 3  Xrotation Yrotation Zrotation
									JOINT left_hand
									{
										OFFSET	-110.7	-3.89999	13.6
										CHANNELS 3  Xrotation Yrotation Zrotation
										JOINT left_ee
										{
											OFFSET	-80.8	-5.10001	12.1
											CHANNELS 3  Xrotation Yrotation Zrotation
											End Site
											{
												OFFSET	1	0	0
											}
										}
									}
								}
							}
						}
					}
					JOINT right_clavicle
					{
						OFFSET	43.2	22.4	-70.8
						CHANNELS 3  Xrotation Yrotation Zrotation
						JOINT right_shoulder
						{
							OFFSET	93.9	-5.79999	48.7
							CHANNELS 3  Xrotation Yrotation Zrotation
							JOINT right_elbow
							{
								OFFSET	291.4	-30.8	15.2
								CHANNELS 3  Xrotation Yrotation Zrotation
								JOINT right_lowarm_twist
								{
									OFFSET	110.7	-3.89999	13.6
									CHANNELS 3  Xrotation Yrotation Zrotation
									JOINT right_hand
									{
										OFFSET	110.7	-3.89999	13.6
										CHANNELS 3  Xrotation Yrotation Zrotation
										JOINT right_ee
										{
											OFFSET	80.8	-5.10001	12.1
											CHANNELS 3  Xrotation Yrotation Zrotation
											End Site
											{
												OFFSET	1	0	0
											}
										}
									}
								}
							}
						}
					}
				}
			}
		}
	}
	JOINT left_hip
	{
		OFFSET	-82.8	-127.5	0.300001
		CHANNELS 3  Xrotation Yrotation Zrotation
		JOINT left_knee
		{
			OFFSET	-28.2	-396.7	2.2
			CHANNELS 3  Xrotation Yrotation Zrotation
			JOINT left_ankle
			{
				OFFSET	-11.7	-411.3	35.4
				CHANNELS 3  Xrotation Yrotation Zrotation
				JOINT left_toes
				{
					OFFSET	0	-60	-88.6
					CHANNELS 3  Xrotation Yrotation Zrotation
					JOINT left_foot_ee
					{
						OFFSET	-22.5	-16.5	-42.2
						CHANNELS 3  Xrotation Yrotation Zrotation
						End Site
						{
							OFFSET	1	0	0
						}
					}
				}
			}
		}
	}
	JOINT right_hip
	{
		OFFSET	82.8	-127.5	0.300001
		CHANNELS 3  Xrotation Yrotation Zrotation
		JOINT right_knee
		{
			OFFSET	28.2	-396.7	2.2
			CHANNELS 3  Xrotation Yrotation Zrotation
			JOINT right_ankle
			{
				OFFSET	11.7	-411.3	35.4
				CHANNELS 3  Xrotation Yrotation Zrotation
				JOINT right_toes
				{
					OFFSET	0	-60	-88.6
					CHANNELS 3  Xrotation Yrotation Zrotation
					JOINT right_foot_ee
					{
						OFFSET	22.5	-16.5	-42.2
						CHANNELS 3  Xrotation Yrotation Zrotation
						End Site
						{
							OFFSET	1	0	0
						}
					}
				}
			}
		}
	}
}
MOTION
Frames: 7
Frame Time: 0.02
3574.42 741.953 -1474.73 -99.5327377312 88.6938755171 99.761733402 0.238909 -0.130454 -0.297115 0.238951 -0.111283 -0.304814 0.239576 -0.0460774 -0.321205 0.239445 -0.0962272 -0.309897 3.20687 -0.0750406 2.50925 3.2345 -2.27778 2.79976 -0.0 0.0 -0.0 4.78115 -5.43698 8.99382 -3.72856 -15.0432 69.2549 1.63404 -38.9856 0.578447 -0.604007 -0.0216732 0.0740912 0.880627 -7.41299 2.80011 -0.0 0.0 -0.0 5.08073 -2.81713 -9.89531 -19.0034 3.33463 -61.6613 1.02446 26.9067 -0.245076 8.51893 -0.221341 1.0647 0.630413 -1.10946 -4.66931 0.0 0.0 0.0 -7.78501 -18.2214 7.16736 5.48541 -0.264433 -0.799694 30.3279 26.3347 -4.17934 -21.1711 0.0 0.0 -0.0 0.0 -0.0 -2.60656 -11.5879 1.50256 2.28494 0.100814 0.336098 20.4161 8.57805 2.88902 -20.5949 0.0 0.0 0.0 0.0 0.0 
3574.42 741.953 -1474.73 -101.893323089 88.6836518244 102.122936878 0.238909 -0.130454 -0.297115 0.238951 -0.111283 -0.304814 0.239576 -0.0460774 -0.321205 0.239445 -0.0962272 -0.309897 3.20687 -0.0750406 2.50925 3.2345 -2.27778 2.79976 -0.0 0.0 -0.0 4.78115 -5.43698 8.99382 -3.72856 -15.0432 69.2549 1.63404 -38.9856 0.578447 -0.604007 -0.0216732 0.0740912 0.880627 -7.41299 2.80011 -0.0 0.0 -0.0 5.08073 -2.81713 -9.89531 -19.0034 3.33463 -61.6613 1.02446 26.9067 -0.245076 8.51893 -0.221341 1.0647 0.630413 -1.10946 -4.66931 0.0 0.0 0.0 -7.78501 -18.2214 7.16736 5.48541 -0.264433 -0.799694 30.3279 26.3347 -4.17934 -21.1711 0.0 0.0 -0.0 0.0 -0.0 -2.60656 -11.5879 1.50256 2.28494 0.100814 0.336098 20.4161 8.57805 2.88902 -20.5949 0.0 0.0 0.0 0.0 0.0 
3574.42 741.953 -1474.73 -105.321144991 88.6644407115 105.551676298 0.238909 -0.130454 -0.297115 0.238951 -0.111283 -0.304814 0.239576 -0.0460774 -0.321205 0.239445 -0.0962272 -0.309897 3.20687 -0.0750406 2.50925 3.2345 -2.27778 2.79976 -0.0 0.0 -0.0 4.78115 -5.43698 8.99382 -3.72856 -15.0432 69.2549 1.63404 -38.9856 0.578447 -0.604007 -0.0216732 0.0740912 0.880627 -7.41299 2.80011 -0.0 0.0 -0.0 5.08073 -2.81713 -9.89531 -19.0034 3.33463 -61.6613 1.02446 26.9067 -0.245076 8.51893 -0.221341 1.0647 0.630413 -1.10946 -4.66931 0.0 0.0 0.0 -7.78501 -18.2214 7.16736 5.48541 -0.264433 -0.799694 30.3279 26.3347 -4.17934 -21.1711 0.0 0.0 -0.0 0.0 -0.0 -2.60656 -11.5879 1.50256 2.28494 0.100814 0.336098 20.4161 8.57805 2.88902 -20.5949 0.0 0.0 0.0 0.0 0.0 
3570.93202399 738.444 -1476.80668566 -97.4878583165 88.7373498114 97.2696897143 0.258143 -0.150677 -0.288985 0.25818 -0.131983 -0.297988 0.258899 -0.0678476 -0.318768 0.258777 -0.117339 -0.304052 3.57847 -0.170848 2.55023 3.60866 -2.4888 2.85286 -0.0 0.0 -0.0 4.89369 -5.44628 9.22188 -3.47859 -15.2125 69.0019 1.60112 -38.4168 0.557866 -0.685195 -0.0246457 0.0840331 0.781164 -7.3882 2.13859 -0.0 0.0 -0.0 5.05928 -3.06672 -9.8603 -19.3736 3.21489 -61.5808 1.00708 26.5131 -0.237263 8.50693 -0.221141 1.06318 0.62774 -1.06755 -4.63429 0.0 0.0 0.0 -8.15833 -18.1673 7.29415 5.49461 -0.26494 -0.801013 30.7194 26.1641 -4.22005 -21.0094 0.0 0.0 -0.0 0.0 -0.0 -2.48663 -11.9735 1.91178 1.00791 0.0428144 0.14874 21.3631 8.89196 3.01295 -20.2668 0.0 0.0 0.0 0.0 0.0 
3570.94978669 738.444 -1476.8362335 -75.5760799481 88.7073674484 75.3525950612 0.258143 -0.150677 -0.288985 0.25818 -0.131983 -0.297988 0.258899 -0.0678476 -0.318768 0.258777 -0.117339 -0.304052 3.57847 -0.170848 2.55023 3.60866 -2.4888 2.85286 -0.0 0.0 -0.0 4.89369 -5.44628 9.22188 -3.47859 -15.2125 69.0019 1.60112 -38.4168 0.557866 -0.685195 -0.0246457 0.0840331 0.781164 -7.3882 2.13859 -0.0 0.0 -0.0 5.05928 -3.06672 -9.8603 -19.3736 3.21489 -61.5808 1.00708 26.5131 -0.237263 8.50693 -0.221141 1.06318 0.62774 -1.06755 -4.63429 0.0 0.0 0.0 -8.15833 -18.1673 7.29415 5.49461 -0.26494 -0.801013 30.7194 26.1641 -4.22005 -21.0094 0.0 0.0 -0.0 0.0 -0.0 -2.48663 -11.9735 1.91178 1.00791 0.0428144 0.14874 21.3631 8.89196 3.01295 -20.2668 0.0 0.0 0.0 0.0 0.0 
3570.97135935 738.444 -1476.87137285 -54.1713327652 88.4558733714 53.9414894527 0.258143 -0.150677 -0.288985 0.25818 -0.131983 -0.297988 0.258899 -0.0678476 -0.318768 0.258777 -0.117339 -0.304052 3.57847 -0.170848 2.55023 3.60866 -2.4888 2.85286 -0.0 0.0 -0.0 4.89369 -5.44628 9.22188 -3.47859 -15.2125 69.0019 1.60112 -38.4168 0.557866 -0.685195 -0.0246457 0.0840331 0.781164 -7.3882 2.13859 -0.0 0.0 -0.0 5.05928 -3.06672 -9.8603 -19.3736 3.21489 -61.5808 1.00708 26.5131 -0.237263 8.50693 -0.221141 1.06318 0.62774 -1.06755 -4.63429 0.0 0.0 0.0 -8.15833 -18.1673 7.29415 5.49461 -0.26494 -0.801013 30.7194 26.1641 -4.22005 -21.0094 0.0 0.0 -0.0 0.0 -0.0 -2.48663 -11.9735 1.91178 1.00791 0.0428144 0.14874 21.3631 8.89196 3.01295 -20.2668 0.0 0.0 0.0 0.0 0.0 
3571.00530627 738.444 -1476.92510062 -34.8112456032 87.8067212925 34.5716006698 0.258143 -0.150677 -0.288985 0.25818 -0.131983 -0.297988 0.258899 -0.0678476 -0.318768 0.258777 -0.117339 -0.304052 3.57847 -0.170848 2.55023 3.60866 -2.4888 2.85286 -0.0 0.0 -0.0 4.89369 -5.44628 9.22188 -3.47859 -15.2125 69.0019 1.60112 -38.4168 0.557866 -0.685195 -0.0246457 0.0840331 0.781164 -7.3882 2.13859 -0.0 0.0 -0.0 5.05928 -3.06672 -9.8603 -19.3736 3.21489 -61.5808 1.00708 26.5131 -0.237263 8.50693 -0.221141 1.06318 0.62774 -1.06755 -4.63429 0.0 0.0 0.0 -8.15833 -18.1673 7.29415 5.49461 -0.26494 -0.801013 30.7194 26.1641 -4.22005 -21.0094 0.0 0.0 -0.0 0.0 -0.0 -2.48663 -11.9735 1.91178 1.00791 0.0428144 0.14874 21.3631 8.89196 3.01295 -20.2668 0.0 0.0 0.0 0.0 0.0 
